<?xml version="1.0" encoding="UTF-8"?>
<svg xmlns="http://www.w3.org/2000/svg" xmlns:xlink="http://www.w3.org/1999/xlink"
     width="150mm" height="100mm" viewBox="0 -1000 1500 1000">
<defs>
</defs>
<path d="M174.77242039412965,-120.2349010388003 L137.85461658841533,-135.60832739608912 L129.7650989611997,-174.77242039412965 L114.39167260391086,-137.85461658841533 L75.22757960587035,-129.7650989611997 L112.14538341158467,-114.39167260391086 L120.23490103880029,-75.22757960587035 L135.60832739608912,-112.14538341158467 L174.77242039412965,-120.2349010388003" stroke="black" fill="none" stroke-width="2" />
<path d="M78.9229914063859,-394.41415151542844 L108.7705216837551,-371.2076641287573 L92.2974659875231,-337.17746347529305 L123.59154113276587,-358.39295265867264 L150.86573105565387,-332.21023537156833 L140.35900286453804,-368.52861616152387 L173.6884349487347,-386.37700761372815 L135.90084467082565,-387.6075121749023 L129.2253766017024,-424.821142023982 L116.37808964811538,-389.2632548761439 L78.9229914063859,-394.41415151542844" stroke="black" fill="none" stroke-width="2" />
<path d="M113.21575375988974,-673.5914760071398 L113.49960179601445,-637.0631098365034 L77.02642425037972,-639.0902813951832 L108.80284133095338,-621.0719179199632 L88.81067049048998,-590.4988053880434 L120.30323953493894,-609.0088080834599 L136.78424624011026,-576.4085239928602 L136.50039820398555,-612.9368901634966 L172.97357574962027,-610.9097186048168 L141.19715866904662,-628.9280820800368 L161.18932950951006,-659.5011946119566 L129.69676046506106,-640.9911919165401 L113.21575375988974,-673.5914760071398" stroke="black" fill="none" stroke-width="2" />
<path d="M173.75449304867584,-886.0905097974177 L138.03809618253277,-885.3819952664602 L146.72701949440062,-920.0326173333278 L125.01214925530984,-891.666662238534 L103.33865711041352,-920.0642455192558 L111.97705369103893,-885.4009926070397 L76.26172773315466,-886.1615776861004 L108.74850231710805,-871.3031634008607 L85.88571145240167,-843.8540142006194 L117.75766016853312,-859.9891275555574 L124.9635522340705,-825.0000132843982 L132.22044762986215,-859.9785848269147 L164.0688389268832,-843.7970221788808 L141.2460907556151,-871.2794741046332 L173.75449304867584,-886.0905097974177" stroke="black" fill="none" stroke-width="2" />
<path d="M418.5122354831607,-149.63098380613272 L385.2580647837479,-138.13582447622565 L388.35106109811636,-173.1845324513413 L372.9651166068237,-141.54197773405446 L350.3690161938673,-168.51223548316068 L361.86417552377435,-135.2580647837479 L326.8154675486587,-138.35106109811636 L358.45802226594554,-122.96511660682367 L331.4877645168393,-100.36901619386728 L364.7419352162521,-111.86417552377435 L361.64893890188364,-76.81546754865869 L377.0348833931763,-108.45802226594556 L399.6309838061327,-81.48776451683932 L388.13582447622565,-114.7419352162521 L423.1845324513413,-111.64893890188364 L391.54197773405446,-127.03488339317632 L418.5122354831607,-149.63098380613272" stroke="black" fill="none" stroke-width="2" />
<path d="M334.2163602102448,-346.07432411335054 L365.5230261511067,-361.2899764972787 L362.3509854306389,-326.626428388798 L376.5528500815319,-358.4058313133178 L396.4042251461751,-329.8130644334909 L386.8560782008021,-363.2862820814976 L420.44219003435103,-354.14316982660284 L391.611715564285,-373.6477116472183 L423.2172491717672,-388.23241785569485 L388.5945465965851,-384.6418919622165 L403.4309215466799,-416.1300705081639 L379.21633818978705,-391.12452387040065 L370.34144975540426,-424.7825060600466 L367.8652582846083,-390.062311855503 L339.43176539759384,-410.1411537555072 L359.852603321883,-381.9522767244657 L325.164853307145,-379.0568650583452 L358.92758360941093,-370.5891940481017 L334.2163602102448,-346.07432411335054" stroke="black" fill="none" stroke-width="2" />
<path d="M399.80717028148166,-581.587970530905 L387.336025271101,-613.7928478957169 L420.5863730340921,-604.4602192417591 L391.56745281445563,-623.1841572153505 L423.953130711511,-635.1779660807902 L389.47067648969835,-633.2690567604939 L408.6214563128491,-662.008075813303 L381.8465935860803,-640.1954576780307 L380.4475283539485,-674.702358443367 L371.6073446397366,-641.3177102371703 L350.19282971851834,-668.412029469095 L362.663974728899,-636.2071521042831 L329.4136269659079,-645.5397807582409 L358.43254718554437,-626.8158427846495 L326.046869288489,-614.8220339192098 L360.52932351030165,-616.7309432395061 L341.3785436871509,-587.991924186697 L368.1534064139197,-609.8045423219693 L369.5524716460515,-575.297641556633 L378.3926553602634,-608.6822897628297 L399.80717028148166,-581.587970530905" stroke="black" fill="none" stroke-width="2" />
<path d="M329.478979581771,-895.6842137893412 L358.49849477327376,-877.3405347743849 L325.52255050358866,-867.7901462337945 L359.8526617972777,-868.0475958726404 L337.27486204956426,-842.1851563066256 L366.01600167466853,-860.9619961579924 L361.0046383417159,-826.998647393497 L375.03169754245323,-858.3333634753865 L389.1778430738726,-827.0522287715827 L384.03732966447325,-860.996270128519 L412.84968280592693,-842.3288887319284 L390.173673472743,-868.1052620702196 L424.5045156801787,-867.9783956768455 L391.49248316547045,-877.4032845887351 L420.4420146081669,-895.8572123820788 L387.57504598347856,-885.9382812311248 L401.95199497599447,-917.1140115260226 L379.6651205527614,-891.0004508688344 L374.90490737264025,-924.9999095738405 L370.27405230870914,-890.9825904094724 L347.8880110065803,-917.0111896144431 L362.383439064691,-885.8903704226906 L329.478979581771,-895.6842137893412" stroke="black" fill="none" stroke-width="2" />
<path d="M662.3157833943851,-158.27960801547 L634.1436275136317,-138.9345560987688 L640.67661237392,-172.47887766657777 L625.9513356601631,-141.639493328809 L614.8369057278073,-173.95622038938998 L617.5041341848228,-139.88589175893182 L591.72039198453,-162.3157833943851 L611.0654439012312,-134.1436275136317 L577.5211223334222,-140.67661237392002 L608.3605066711909,-125.95133566016302 L576.04377961061,-114.83690572780733 L610.1141082410682,-117.5041341848227 L587.6842166056149,-91.72039198453002 L615.8563724863683,-111.0654439012312 L609.3233876260799,-77.52112233342223 L624.0486643398369,-108.36050667119098 L635.1630942721927,-76.04377961061 L632.4958658151772,-110.11410824106818 L658.27960801547,-87.68421660561489 L638.9345560987688,-115.85637248636827 L672.4788776665778,-109.32338762607995 L641.6394933288091,-124.04866433983696 L673.95622038939,-135.16309427219267 L639.8858917589318,-132.4958658151773 L662.3157833943851,-158.27960801547" stroke="black" fill="none" stroke-width="2" />
<path d="M596.5584425534885,-416.1227164717603 L608.6035433946905,-377.98897784668617 L583.8772835282397,-346.55844255348853 L622.0110221533139,-358.6035433946905 L653.4415574465114,-333.8772835282397 L641.3964566053095,-372.01102215331383 L666.1227164717603,-403.44155744651147 L627.9889778466861,-391.3964566053095 L596.5584425534885,-416.1227164717603" stroke="black" fill="none" stroke-width="2" />
<path d="M594.4755258665845,-585.3987818510788 L624.5273978941538,-608.3400352633228 L653.2304153221736,-583.732050562966 L640.6985259417804,-619.4023164582995 L672.9718303190446,-639.0962227508222 L635.1748247111385,-638.2004060496404 L626.4178063175387,-674.9798942100316 L615.5898615592755,-638.755983145678 L577.9044221746586,-641.7930506251014 L609.0093898936518,-620.3012590830592 L594.4755258665845,-585.3987818510788" stroke="black" fill="none" stroke-width="2" />
<path d="M575.0232824874263,-876.5256823615711 L610.3186839518556,-867.1109736423132 L598.6903615604867,-832.4817342171381 L624.4914392128096,-858.3410941624754 L648.6670790730604,-830.956051855567 L639.172755260954,-866.2301205201622 L674.9767175125737,-873.4743176384289 L639.6813160481444,-882.8890263576868 L651.3096384395133,-917.5182657828619 L625.5085607871904,-891.6589058375246 L601.3329209269396,-919.043948144433 L610.827244739046,-883.7698794798378 L575.0232824874263,-876.5256823615711" stroke="black" fill="none" stroke-width="2" />
<path d="M903.0149777582964,-83.5854974531607 L889.40323400464,-116.6140219422324 L924.8462148534684,-121.0814716050709 L890.5366911725267,-131.03232999655242 L909.1422354864974,-161.52817756177495 L879.9707029967581,-140.90817052636154 L867.7284564235125,-174.46842077543252 L865.6616740805679,-138.80483418227976 L831.79029798608,-150.1579341733028 L858.3845950488438,-126.30617613164303 L828.3899264824197,-106.90301001034271 L863.6192548378342,-112.82394081274168 L860.0878910097257,-77.2754884209154 L877.4238478588292,-108.51052640818915 L903.0149777582964,-83.5854974531607" stroke="black" fill="none" stroke-width="2" />
<path d="M863.4991807509379,-423.6593378150628 L865.251168692333,-388.5180644292158 L832.4603449827094,-401.2750404568653 L858.5478202472898,-377.6652503001201 L826.3406621849372,-363.49918075093785 L861.4819355707842,-365.251168692333 L848.7249595431347,-332.46034498270944 L872.3347496998799,-358.5478202472898 L886.5008192490621,-326.3406621849372 L884.748831307667,-361.4819355707842 L917.5396550172906,-348.7249595431347 L891.4521797527102,-372.33474969987986 L923.6593378150628,-386.50081924906215 L888.5180644292158,-384.748831307667 L901.2750404568653,-417.5396550172905 L877.6652503001201,-391.4521797527102 L863.4991807509379,-423.6593378150628" stroke="black" fill="none" stroke-width="2" />
<path d="M831.6735814901612,-649.9563911475657 L858.5836319213469,-627.8776095780971 L825.7683788481447,-616.2680197686784 L860.5746406748359,-616.6521388297554 L842.8991988916038,-586.6654389851769 L869.3154353765801,-609.3327250991138 L875.0503405343464,-575.0000253417004 L880.716101042521,-609.3442034169619 L907.1779272815957,-586.7301555286627 L889.4421395032796,-616.6812029508114 L924.2491042359594,-616.3671712657087 L891.4105403839518,-627.9106600771072 L918.2760779754924,-650.0435835107339 L885.7002670361321,-637.778187004941 L892.0536938702596,-672.0018247026588 L874.9832198218845,-641.6666582194332 L857.8516968724368,-671.9673897491143 L864.2740242394681,-637.756614823779 L831.6735814901612,-649.9563911475657" stroke="black" fill="none" stroke-width="2" />
<path d="M846.3175048125681,-915.9550298476628 L861.6885086067758,-885.0290565192294 L827.7226114006357,-891.2741674817701 L858.3358457259951,-875.289378834648 L827.1860735343238,-860.3771262764495 L861.3483233841124,-865.439168270856 L844.9128304423119,-835.0655258203275 L869.5752775060766,-859.2408704668786 L874.1318634960558,-825.0075371779853 L879.8742912411835,-859.0620245114412 L903.6824951874319,-834.0449701523372 L888.3114913932242,-864.9709434807706 L922.2773885993643,-858.7258325182299 L891.6641542740049,-874.710621165352 L922.8139264656762,-889.6228737235505 L888.6516766158876,-884.560831729144 L905.0871695576881,-914.9344741796725 L880.4247224939234,-890.7591295331214 L875.8681365039442,-924.9924628220147 L870.1257087588165,-890.9379754885588 L846.3175048125681,-915.9550298476628" stroke="black" fill="none" stroke-width="2" />
<path d="M1170.761870301598,-104.85425041107398 L1141.5279688516723,-122.85430118238115 L1174.3889495861945,-132.79305195493671 L1140.064264549764,-132.13061788013516 L1162.3353863428163,-158.2576145661809 L1133.8177626923127,-139.14301378348466 L1138.428101734828,-173.16311953973818 L1124.7716834833861,-141.66510274033794 L1110.257489704465,-172.77717436376957 L1115.798093155277,-138.89613932712314 L1086.767520527334,-157.22231390468679 L1109.7460432328007,-131.71524986297536 L1075.4160934449833,-131.43709645285657 L1108.5370168046018,-122.4023160150211 L1079.8072063507082,-103.60814635959447 L1112.5548712190612,-113.9141284779397 L1098.546711923062,-82.57095864954604 L1120.5239660883906,-108.94562682008727 L1125.6849495498418,-75.00469177898619 L1129.9141700985117,-109.0742752120768 L1152.605720534169,-83.31158201863065 L1137.744159824222,-114.25922869843774 L1170.761870301598,-104.85425041107398" stroke="black" fill="none" stroke-width="2" />
<path d="M1174.060794328285,-365.35435539335407 L1141.6285216088124,-376.1269635677509 L1172.3107165214612,-391.17702389891076 L1138.8372403567346,-384.290239883218 L1157.8837704293742,-412.66507191481537 L1132.3382817255942,-389.96420392448545 L1134.6456446066459,-424.060794328285 L1123.8730364322491,-391.6285216088124 L1108.8229761010894,-422.3107165214613 L1115.709760116782,-388.8372403567345 L1087.3349280851846,-407.88377042937424 L1110.0357960755146,-382.33828172559436 L1075.939205671715,-384.64564460664593 L1108.3714783911876,-373.8730364322491 L1077.6892834785388,-358.82297610108924 L1111.1627596432654,-365.709760116782 L1092.1162295706258,-337.3349280851847 L1117.6617182744055,-360.03579607551455 L1115.3543553933541,-325.939205671715 L1126.1269635677509,-358.3714783911876 L1141.1770238989106,-327.6892834785387 L1134.290239883218,-361.1627596432655 L1162.6650719148154,-342.11622957062576 L1139.9642039244854,-367.66171827440564 L1174.060794328285,-365.35435539335407" stroke="black" fill="none" stroke-width="2" />
<path d="M1124.5805321194398,-575.0017595639889 L1136.685828758955,-613.1164321858223 L1174.9982404360112,-624.5805321194399 L1136.8835678141777,-636.6858287589549 L1125.4194678805602,-674.9982404360111 L1113.314171241045,-636.8835678141777 L1075.0017595639888,-625.4194678805601 L1113.1164321858223,-613.3141712410451 L1124.5805321194398,-575.0017595639889" stroke="black" fill="none" stroke-width="2" />
<path d="M1083.3469120888572,-847.3410002446473 L1119.1864987203498,-859.3801094546318 L1138.4337599187975,-826.8384583464762 L1138.0589279947571,-864.6442200967031 L1174.9556081376656,-872.8935300628812 L1138.8843626370476,-884.2196665851176 L1142.440503838951,-921.8596716361046 L1120.5220800270674,-891.0538472178413 L1085.8232160157288,-906.0673397098908 L1108.3481306207782,-875.7021566457063 L1083.3469120888572,-847.3410002446473" stroke="black" fill="none" stroke-width="2" />
<path d="M1414.8106498288507,-155.25082081869215 L1381.4505412278684,-140.367768076248 L1368.707345600107,-174.60244450229752 L1364.916393060436,-138.27021660961694 L1328.896695771256,-144.35162368360537 L1358.4658518325675,-122.90244853336895 L1335.1893501711493,-94.74917918130785 L1368.5494587721316,-109.632231923752 L1381.292654399893,-75.39755549770248 L1385.083606939564,-111.72978339038305 L1421.103304228744,-105.6483763163946 L1391.5341481674325,-127.09755146663105 L1414.8106498288507,-155.25082081869215" stroke="black" fill="none" stroke-width="2" />
<path d="M1345.1127306260873,-334.91569971458665 L1371.8214756117459,-358.6392310544079 L1387.704760255799,-326.64103943587423 L1385.8095866980134,-362.3141569773267 L1420.7298462830142,-354.7816628049712 L1391.6578585252926,-375.541781440357 L1419.3194253402548,-398.14710646084256 L1384.9624231246376,-388.3614334284711 L1384.5355731647626,-424.08230683677635 L1370.7650799147336,-391.11965352137526 L1342.5712399059596,-413.0575290680199 L1359.7567179056618,-381.73944573167626 L1325.0264244241223,-373.3746556789291 L1360.2268582199151,-367.2842978463858 L1345.1127306260873,-334.91569971458665" stroke="black" fill="none" stroke-width="2" />
<path d="M1365.7568698845078,-575.8617812118908 L1378.4216144986995,-608.6883375464035 L1403.210087736446,-583.7181522954457 L1388.9535339480005,-615.8853596812726 L1424.138218788109,-615.7568698845079 L1391.3116624535965,-628.4216144986995 L1416.2818477045544,-653.2100877364461 L1384.1146403187274,-638.9535339480007 L1384.2431301154922,-674.1382187881092 L1371.5783855013005,-641.3116624535965 L1346.789912263554,-666.2818477045543 L1361.0464660519995,-634.1146403187274 L1325.861781211891,-634.2431301154921 L1358.6883375464035,-621.5783855013005 L1333.7181522954456,-596.7899122635539 L1365.8853596812726,-611.0464660519993 L1365.7568698845078,-575.8617812118908" stroke="black" fill="none" stroke-width="2" />
<path d="M1420.1397028790732,-853.4963439390185 L1391.5907097426455,-873.410620242652 L1423.4013022335155,-887.5424854833435 L1388.7308546208633,-884.4467671273561 L1404.0153943523403,-915.7198586758129 L1379.4461800205283,-891.0626666840483 L1371.0528609835164,-924.8439574430497 L1368.0810883748013,-890.1626659826189 L1339.937237828069,-910.6455145688012 L1359.9534323736423,-882.1678853536605 L1325.2278707720636,-879.7681392720438 L1358.866232588828,-870.8191715055522 L1333.8074361374101,-846.6596986179318 L1365.3282018825532,-861.426713774729 L1361.6614599384152,-826.8119999478553 L1376.3157130054944,-858.3853475189834 L1395.756734875596,-829.5120020521433 L1386.6875873906436,-863.1181618103996 L1420.1397028790732,-853.4963439390185" stroke="black" fill="none" stroke-width="2" />
</svg>